<?xml version="1.0" encoding="UTF-8"?>
<svg width="57px" height="49px" viewBox="0 0 57 49" version="1.1" xmlns="http://www.w3.org/2000/svg" xmlns:xlink="http://www.w3.org/1999/xlink">
    <title>Group</title>
    <g id="Page-1" stroke="none" stroke-width="1" fill="none" fill-rule="evenodd">
        <g id="16_building2" transform="translate(-37.000000, -122.000000)" fill="currentColor">
            <g id="Group" transform="translate(37.052562, 122.129500)">
                <path d="M20.9904378,15.0205 L54.7504378,15.0205 C55.4664378,15.0205 55.6224378,15.7475 55.2014378,16.3225 L41.4284378,35.1485 C41.0084378,35.7225 40.8304378,36.5575 40.1264378,36.4495 L23.5274378,33.9125 C22.8234378,33.8045 22.3354378,33.3185 22.2254378,32.6115 L19.6884378,16.3225 C19.5784378,15.6155 20.2744378,15.0205 20.9904378,15.0205 Z M31.6684378,36.4045 C31.3854378,36.3525 31.1074378,36.3955 30.8664378,36.5105 C30.6814378,36.5615 30.5114378,36.6525 30.3664378,36.7745 L22.8294378,41.4315 L19.1284378,23.0095 L17.8294378,23.2265 L19.1304378,23.0045 C19.0264378,22.3935 18.5174378,21.9525 17.9254378,21.9095 L10.0404378,20.6595 L9.6834378,23.2665 L16.6894378,24.3775 L20.5764378,43.8975 C20.6004378,44.1235 20.6824378,44.3465 20.8264378,44.5425 C21.2594378,45.1295 22.0854378,45.2545 22.6724378,44.8225 L22.6704378,44.8205 L31.5384378,39.1825 L41.6144378,40.9835 C41.6224378,45.0715 44.9384378,48.3815 49.0274378,48.3815 C53.1224378,48.3815 56.4414378,45.0625 56.4414378,40.9675 C56.4414378,36.8735 53.1224378,33.5545 49.0274378,33.5545 C45.8584378,33.5545 43.1534378,35.5435 42.0934378,38.3415 L31.6684378,36.4045 Z M44.8264378,41.5265 L48.7904378,42.2625 C49.5054378,42.3935 50.1914378,41.9205 50.3224378,41.2055 C50.4534378,40.4905 49.9794378,39.8045 49.2654378,39.6735 L45.3064378,38.9385 C46.0264378,37.6225 47.4224378,36.7305 49.0274378,36.7305 C51.3684378,36.7305 53.2654378,38.6275 53.2654378,40.9685 C53.2654378,43.3085 51.3684378,45.2065 49.0274378,45.2065 C46.8764378,45.2065 45.0994378,43.6025 44.8264378,41.5265 L44.8264378,41.5265 Z" id="Fill-50"></path>
                <path d="M1.8584378,18.3405 L7.7544378,19.1485 C8.5404378,19.2565 9.0954378,19.9875 8.9884378,20.7735 L8.7674378,22.3815 C8.6604378,23.1685 7.9294378,23.7235 7.1424378,23.6155 L1.2464378,22.8075 C0.460437799,22.6995 -0.0945622009,21.9685 0.0134377991,21.1825 L0.233437799,19.5745 C0.341437799,18.7885 1.0724378,18.2335 1.8584378,18.3405" id="Fill-51"></path>
                <path d="M23.5044378,13.6185 L36.6224378,0.4995 C37.2894378,-0.1665 38.3794378,-0.1665 39.0454378,0.4995 L52.1644378,13.6185 L23.5044378,13.6185" id="Fill-52"></path>
            </g>
        </g>
    </g>
</svg>
