<?xml version="1.0" encoding="UTF-8"?>
<svg width="30px" height="30px" viewBox="0 0 30 30" version="1.1" xmlns="http://www.w3.org/2000/svg" xmlns:xlink="http://www.w3.org/1999/xlink">
    <title>clock</title>
    <g id="Page-1" stroke="none" stroke-width="1" fill="none" fill-rule="evenodd">
        <g id="clock" fill="currentColor" fill-rule="nonzero">
            <path d="M15,30 C6.72866824,30 0,23.2713318 0,15 C0,6.72866824 6.72866824,0 15,0 C23.2713318,0 30,6.72866824 30,15 C30,23.2713318 23.2713318,30 15,30 Z M15,1.875 C7.76252748,1.875 1.875,7.76252748 1.875,15 C1.875,22.2374725 7.76252748,28.125 15,28.125 C22.2374725,28.125 28.125,22.2374725 28.125,15 C28.125,7.76252748 22.2374725,1.875 15,1.875 Z" id="Shape"></path>
            <path d="M21.5625,23.1250763 C21.322403,23.1250763 21.0825348,23.0337524 20.8998871,22.8499603 L14.3373871,16.2874603 C14.1611481,16.1112213 14.0625,15.8724976 14.0625,15.6250763 L14.0625,6.87492369 C14.0625,6.35742188 14.4824982,5.93742369 15,5.93742369 C15.5175018,5.93742369 15.9375,6.35742188 15.9375,6.87492369 L15.9375,15.2362061 L22.2251129,21.523819 C22.5913239,21.8900299 22.5913239,22.4837494 22.2251129,22.8499603 C22.0424652,23.0337524 21.802597,23.1250763 21.5625,23.1250763 L21.5625,23.1250763 Z" id="Path"></path>
        </g>
    </g>
</svg>
