<?xml version="1.0" encoding="UTF-8"?>
<svg width="801px" height="398px" viewBox="0 0 801 398" version="1.1" xmlns="http://www.w3.org/2000/svg" xmlns:xlink="http://www.w3.org/1999/xlink">
    <title>delivery</title>
    <g id="Page-1" stroke="none" stroke-width="1" fill="none" fill-rule="evenodd">
        <g id="delivery" transform="translate(0.000000, 0.354766)" fill="currentColor" fill-rule="nonzero">
            <path d="M795.905973,179.270805 L713.821587,51.5915317 C709.14998,44.2868367 701.046865,39.9040197 692.349181,39.9040197 L584.749326,39.9040197 C570.683541,39.9040197 559.267832,51.3027414 559.267832,65.3855138 L559.267832,269.441318 L477.217421,269.441318 C521.844011,245.047035 552.166989,197.736394 552.166989,143.426836 C552.166989,64.3492663 487.83471,2.84217094e-14 408.774128,2.84217094e-14 L143.426836,2.84217094e-14 C64.3492663,2.84217094e-14 0,64.3492663 0,143.426836 C0,193.931157 26.2969019,238.31992 65.8441807,263.90334 C64.2473404,265.670057 62.6505001,267.521712 61.2405241,269.441318 L49.9946914,269.441318 C35.8949313,269.441318 24.5131973,280.857028 24.5131973,294.922812 C24.5131973,307.663559 33.8903871,318.093984 46.1045166,320.047565 C47.9391842,362.873463 83.1206336,397.290468 126.422186,397.290468 C147.401949,397.290468 166.377169,389.085427 180.731744,375.852037 C195.103306,389.017476 214.04455,397.290468 235.007326,397.290468 C278.189965,397.290468 313.235513,363.11129 315.341983,320.472257 L593.260145,320.472257 C595.315652,363.162253 630.429151,397.290468 673.594802,397.290468 C718.068503,397.290468 754.2862,361.089759 754.2862,316.59907 C754.2862,304.588792 751.500223,293.34296 746.760665,283.048436 L790.792687,246.592912 C796.687406,241.768416 800.016988,234.548659 800.016988,226.972161 L800.016988,193.047799 C799.915062,188.17234 798.522073,183.381819 795.905973,179.270805 Z M126.201346,346.123628 C109.910178,346.123628 96.7107638,332.890238 96.7107638,316.59907 C96.7107638,300.273926 109.910178,287.0915 126.201346,287.0915 C142.52649,287.0915 155.72592,300.273926 155.72592,316.59907 C155.742892,332.873251 142.52649,346.123628 126.201346,346.123628 Z M235.567919,346.123628 C219.27675,346.123628 206.060349,332.890238 206.060349,316.59907 C206.060349,300.273926 219.27675,287.0915 235.567919,287.0915 C251.876075,287.0915 265.092477,300.273926 265.092477,316.59907 C265.092477,332.873251 251.876075,346.123628 235.567919,346.123628 Z M674.070456,346.123628 C657.779288,346.123628 644.596862,332.890238 644.596862,316.59907 C644.596862,300.273926 657.779288,287.0915 674.070456,287.0915 C690.3956,287.0915 703.595014,300.273926 703.595014,316.59907 C703.595014,332.873251 690.3956,346.123628 674.070456,346.123628 Z M733.221498,176.077124 L610.23082,176.077124 L601.736989,176.077124 L601.736989,82.3731765 L682.462362,82.3731765 L745.265751,176.077124 L733.221498,176.077124 L733.221498,176.077124 Z" id="Shape"></path>
        </g>
    </g>
</svg>
