<?xml version="1.0" encoding="UTF-8"?>
<svg viewBox="0 0 800 800" version="1.1" xmlns="http://www.w3.org/2000/svg" xmlns:xlink="http://www.w3.org/1999/xlink">
    <title>dialog</title>
    <g id="Page-1" stroke="none" stroke-width="1" fill="none" fill-rule="evenodd">
        <g id="dialog" transform="translate(0.137500, 0.000000)" fill="currentColor" fill-rule="nonzero">
            <path d="M785.51875,94.8546875 C771.851562,66.3453125 749.40625,42.7 721.646875,26.1203125 C693.859375,9.55625 660.671875,0.028125 625.040625,0 C577.596875,0.028125 534.375,16.946875 502.601562,44.975 C486.721875,58.996875 473.682812,75.84375 464.601562,94.8546875 C455.5,113.835937 450.389045,134.995312 450.389045,157.159375 C450.375,185.4 458.721875,211.971875 473.010937,234.601562 C485.215625,253.951562 501.725,270.503125 521.195312,283.45 L491.873437,356.69375 L513.046875,354.079687 C586.198437,344.932812 656.220312,317.554687 689.478125,303.18125 C721.075,291.903125 748.346875,272.621875 767.979687,247.578125 C787.740625,222.3625 799.748437,191.025 799.726623,157.160937 C799.746875,134.995312 794.609375,113.8375 785.51875,94.8546875 Z M749.61875,229.639062 C733.179687,250.657812 709.470312,267.646875 681.4,277.510937 L681.017187,277.623437 L680.635937,277.79375 C651.857812,290.2875 593.645312,312.973437 531.765625,323.74375 L552.740625,271.417188 L542.44375,265.523438 C521.667187,253.65 504.65625,237.48125 492.945312,218.923438 C481.220312,200.307813 474.789062,179.417188 474.76875,157.15625 C474.76875,139.671875 478.746875,123.064063 486.096875,107.685938 C497.1,84.6609375 515.864062,64.5203125 539.946875,50.1453125 C564.039062,35.771875 593.36875,27.234375 625.0375,27.2484202 C667.326562,27.234375 705.340625,42.428125 732.385937,66.3296875 C745.898437,78.2734375 756.66875,92.3375 764.004687,107.685938 C771.346875,123.064063 775.326562,139.671875 775.340625,157.15625 C775.328125,183.7875 766.085937,208.579688 749.61875,229.639062 Z" id="Shape"></path>
            <path d="M556.1625,139.817188 C545.6875,139.817188 537.201562,149.314063 537.201562,160.989063 C537.201562,172.692187 545.689062,182.176563 556.1625,182.176563 C566.635937,182.176563 575.1375,172.692187 575.1375,160.989063 C575.1375,149.314063 566.635937,139.817188 556.1625,139.817188 Z" id="Path"></path>
            <path d="M629.328125,139.817188 C618.848438,139.817188 610.346875,149.314063 610.346875,160.989063 C610.346875,172.692187 618.848437,182.176563 629.328125,182.176563 C639.803125,182.176563 648.296875,172.692187 648.296875,160.989063 C648.296875,149.314063 639.803125,139.817188 629.328125,139.817188 Z" id="Path"></path>
            <path d="M702.475,139.817188 C692,139.817188 683.50625,149.314063 683.50625,160.989063 C683.50625,172.692187 692,182.176563 702.475,182.176563 C712.9625,182.176563 721.457813,172.692187 721.457813,160.989063 C721.45625,149.314063 712.9625,139.817188 702.475,139.817188 Z" id="Path"></path>
            <path d="M345.089063,542.276563 C325.273438,548.864063 304.148438,552.565625 282.148438,552.565625 C260.148438,552.565625 239.025,548.864063 219.207813,542.276563 C75.30625,565.89375 -1.24344979e-14,671.646875 -1.24344979e-14,800 L282.148438,800 L564.296875,800 C564.296875,671.646875 488.996875,565.89375 345.089063,542.276563 Z" id="Path"></path>
            <path d="M282.148438,506.8125 C367.442187,506.8125 436.579688,437.66875 436.579688,352.38125 L436.579688,308.564062 C436.579688,223.279687 367.442188,154.132812 282.148438,154.132812 C196.854687,154.132812 127.717187,223.278125 127.717187,308.564062 L127.717187,352.38125 C127.717187,437.66875 196.85625,506.8125 282.148438,506.8125 Z" id="Path"></path>
        </g>
    </g>
</svg>
