<?xml version="1.0" encoding="UTF-8"?>
<svg viewBox="0 0 727 565" version="1.1" xmlns="http://www.w3.org/2000/svg" xmlns:xlink="http://www.w3.org/1999/xlink">
    <title>equipment</title>
    <g id="Page-1" stroke="none" stroke-width="1" fill="none" fill-rule="evenodd">
        <g id="equipment" transform="translate(0.062500, 0.812500)" fill="currentColor" fill-rule="nonzero">
            <path d="M410.9375,0 L410.9375,28.125 L660.9375,28.125 L660.9375,0 L410.9375,0 Z M475,53.125 L475,78.125 L596.875,78.125 L596.875,53.125 L475,53.125 Z M60.9375,106.25 C51.953125,106.25 44.678125,109.279687 37.384375,115.660937 C30.090625,122.04375 23.2,132.035937 17.5390625,144.771875 C6.215625,170.25 0,206.25 0,242.1875 C0,278.125 6.215625,314.126562 17.5390625,339.603125 C23.2,352.340625 30.090625,362.33125 37.3828125,368.7125 C44.6796875,375.096875 51.953125,378.125 60.9375,378.125 L68.8359375,378.125 L71.9609375,350.009375 L73.3515625,337.5 L198.523438,337.5 L203.035938,378.125 L246.875,378.125 L246.875,106.25 L60.9375,106.25 Z M275,106.25 L275,178.125 L346.875,178.125 L346.875,106.25 L275,106.25 Z M375,106.25 L375,378.125 L418.835938,378.125 L421.960938,350.009375 L423.351562,337.5 L548.523438,337.5 L553.035937,378.125 L660.9375,378.125 C669.921875,378.125 677.196875,375.09375 684.490625,368.714062 C691.784375,362.33125 698.678125,352.339062 704.339062,339.603125 C715.6625,314.128125 721.878125,278.129687 721.878125,242.19375 C721.878125,206.25625 715.665625,170.25625 704.342187,144.78125 C698.68125,132.04375 691.789062,122.046875 684.49375,115.664063 C677.2,109.282813 669.921875,106.25 660.9375,106.25 L375,106.25 Z M275,206.25 L275,278.125 L346.875,278.125 L346.875,206.25 L275,206.25 Z M275,306.25 L275,378.125 L346.875,378.125 L346.875,306.25 L275,306.25 Z M98.5265625,365.625 L76.6515625,562.5 L195.223437,562.5 L173.351562,365.625 L98.5265625,365.625 Z M448.526563,365.625 L426.651563,562.5 L545.223437,562.5 L523.351562,365.625 L448.526563,365.625 Z M246.875,392.1875 L246.875,564.0625 L275,564.0625 L275,506.25 L346.875,506.25 L346.875,564.0625 L375,564.0625 L375,392.1875 L346.875,392.1875 L346.875,478.125 L275,478.125 L275,392.1875 L246.875,392.1875 Z M600,406.25 L600,453.125 L646.875,453.125 L646.875,406.25 L600,406.25 Z M610.629688,481.25 C619.760938,512.3875 636.28125,532.63125 654.876562,544.629687 C683.146875,562.867188 714.0625,562.50055 726.5625,562.50055 L726.5625,534.375 C714.0625,534.375 690.290625,534.007812 670.123438,520.995313 C658.329688,513.385937 647.042188,501.589063 639.696875,481.25 L610.629688,481.25 Z" id="Shape"></path>
        </g>
    </g>
</svg>
