<?xml version="1.0" encoding="UTF-8"?>
<svg width="181px" height="141px" viewBox="0 0 181 141" version="1.1" xmlns="http://www.w3.org/2000/svg" xmlns:xlink="http://www.w3.org/1999/xlink">
    <title>Group</title>
    <g id="Page-1" stroke="none" stroke-width="1" fill="none" fill-rule="evenodd">
        <g id="1_Z2FzX3N0YXRpb25fc2V0LmpwZw" transform="translate(-162.000000, -197.000000)" fill="#231F20">
            <g id="Group" transform="translate(162.686000, 197.637500)">
                <path d="M161.413,60.1635 C162.936,60.1335 164.304,58.9315 164.287157,57.7115 C163.856,42.2175 162.876,26.4905 161.375,11.0345 C161.181,9.2305 159.376,7.6585 158.049,7.6275 C144.632,7.3855 131.027,7.2615 117.611,7.2615 C104.201,7.2615 90.595,7.3855 77.193,7.6275 C75.848,7.6585 74.04,9.2355 73.857,10.9665 C72.352,26.4815 71.371,42.2055 70.9427141,57.6395 C70.92,58.9315 72.288,60.1335 73.797,60.1635 C88.317,60.4275 103.051,60.5645 117.588,60.5645 C132.121,60.5645 146.872,60.4275 161.413,60.1635 Z M171.543,57.5105 C171.64,62.8325 167.101,67.3095 161.56,67.4245 C132.257,67.9595 102.968,67.9595 73.663,67.4245 C68.125,67.3095 63.586,62.8325 63.684,57.5105 C64.122,41.6985 65.104,26.0125 66.63,10.2675 C67.197,4.9415 71.93,0.4745 77.044,0.3675 C104.096,-0.1225 131.129,-0.1225 158.181,0.3675 C163.293,0.4745 168.026,4.9415 168.593,10.2675 C170.121,26.0125 171.105,41.6985 171.543,57.5105 L171.543,57.5105 Z" id="Fill-1"></path>
                <polyline id="Fill-2" points="174.564 132.6445 154.276 130.0845 154.276 64.6225 80.952 64.6225 80.952 130.0845 60.664 132.6445 55.285 140.3285 179.941 140.3285 174.564 132.6445"></polyline>
                <path d="M28.567,125.1445 C12.816,125.1445 0,112.3345 0,96.5805 C0,89.8095 2.416,83.2395 6.794,78.0865 L8.407,76.1925 L8.41,76.1965 L55.879,20.4395 L68.379,20.4395 L68.379,25.5605 L58.246,25.5605 L10.484,81.6635 C7.025,85.8515 5.127,91.1355 5.127,96.5805 C5.127,109.5085 15.641,120.0255 28.567,120.0255 C41.497,120.0255 52.01,109.5085 52.01,96.5805 L52.01,47.2625 L65.675,47.2625 L65.675,52.3865 L57.136,52.3865 L57.136,96.5805 C57.136,112.3345 44.319,125.1445 28.567,125.1445" id="Fill-3"></path>
                <polygon id="Fill-4" points="116.748 27.1895 118.475 27.1895 118.475 20.4395 116.748 20.4395"></polygon>
                <polyline id="Fill-5" points="122.291 27.3255 121.496 27.2825 121.741 22.5725 122.534 22.6145 122.291 27.3255"></polyline>
                <polyline id="Fill-6" points="126.554 27.6795 125.761 27.5985 126.256 22.9085 127.049 22.9895 126.554 27.6795"></polyline>
                <polyline id="Fill-7" points="130.797 28.2585 130.008 28.1355 130.745 23.4795 131.534 23.6035 130.797 28.2585"></polyline>
                <polyline id="Fill-8" points="135.002 29.0615 134.221 28.8955 135.205 24.2815 135.981 24.4485 135.002 29.0615"></polyline>
                <polyline id="Fill-9" points="139.61 30.2045 137.94 29.7565 139.686 23.2325 141.353 23.6805 139.61 30.2045"></polyline>
                <polyline id="Fill-10" points="143.253 31.3165 142.498 31.0695 143.954 26.5835 144.713 26.8315 143.253 31.3165"></polyline>
                <polyline id="Fill-11" points="147.282 32.7665 146.542 32.4795 148.228 28.0765 148.972 28.3625 147.282 32.7665"></polyline>
                <polyline id="Fill-12" points="151.228 34.4195 150.501 34.0965 152.419 29.7895 153.148 30.1145 151.228 34.4195"></polyline>
                <polyline id="Fill-13" points="155.082 36.2845 154.377 35.9205 156.514 31.7175 157.222 32.0795 155.082 36.2845"></polyline>
                <polyline id="Fill-14" points="159.239 38.5775 157.74 37.7115 161.117 31.8665 162.615 32.7275 159.239 38.5775"></polyline>
                <polyline id="Fill-15" points="112.937 27.3255 113.734 27.2825 113.482 22.5725 112.691 22.6145 112.937 27.3255"></polyline>
                <polyline id="Fill-16" points="108.673 27.6795 109.462 27.5985 108.97 22.9085 108.179 22.9895 108.673 27.6795"></polyline>
                <polyline id="Fill-17" points="104.431 28.2585 105.22 28.1355 104.478 23.4795 103.695 23.6035 104.431 28.2585"></polyline>
                <polyline id="Fill-18" points="100.229 29.0615 101.007 28.8955 100.027 24.2815 99.247 24.4485 100.229 29.0615"></polyline>
                <polyline id="Fill-19" points="95.62 30.2045 97.292 29.7565 95.539 23.2325 93.872 23.6805 95.62 30.2045"></polyline>
                <polyline id="Fill-20" points="91.971 31.3165 92.728 31.0695 91.274 26.5835 90.515 26.8315 91.971 31.3165"></polyline>
                <polyline id="Fill-21" points="87.948 32.7665 88.688 32.4795 86.997 28.0765 86.255 28.3625 87.948 32.7665"></polyline>
                <polyline id="Fill-22" points="84.001 34.4195 84.725 34.0965 82.806 29.7895 82.081 30.1145 84.001 34.4195"></polyline>
                <polyline id="Fill-23" points="80.146 36.2845 80.854 35.9205 78.711 31.7175 78.005 32.0795 80.146 36.2845"></polyline>
                <polyline id="Fill-24" points="75.988 38.5775 77.483 37.7115 74.108 31.8665 72.612 32.7275 75.988 38.5775"></polyline>
                <path d="M148.891,58.0795 C144.602,48.4135 132.22,41.4205 117.611,41.4205 C103.004,41.4205 90.626,48.4135 86.341,58.0795 L148.891,58.0795" id="Fill-25"></path>
                <polyline id="Fill-26" points="129.475 25.4715 123.135 40.4445 126.38 41.0885 129.618 41.7275 129.475 25.4715"></polyline>
            </g>
        </g>
    </g>
</svg>