<?xml version="1.0" encoding="UTF-8"?>
<svg width="670px" height="800px" viewBox="0 0 670 800" version="1.1" xmlns="http://www.w3.org/2000/svg" xmlns:xlink="http://www.w3.org/1999/xlink">
    <title>goods</title>
    <g id="Page-1" stroke="none" stroke-width="1" fill="none" fill-rule="evenodd">
        <g id="goods" transform="translate(0.481539, 0.000000)" fill="currentColor" fill-rule="nonzero">
            <path d="M654.502833,51.5725728 L654.659113,51.5725728 C654.659113,23.1295175 631.529596,0 603.08654,0 L473.373706,0 C444.930651,0 421.801133,23.1295175 421.801133,51.5725728 L421.801133,58.2926353 L654.502833,58.2926353 L654.502833,51.5725728 L654.502833,51.5725728 Z" id="Path"></path>
            <path d="M448.681383,588.239891 C431.334245,570.892752 421.801133,547.919516 421.801133,523.539754 L421.801133,480.56261 C421.801133,456.182848 431.334245,433.053331 448.681383,415.862473 L512.287556,352.2563 C517.757374,346.786482 519.007619,338.034772 515.100606,332.564954 C512.443837,328.970502 508.693104,326.782575 504.317249,326.470014 C499.941395,326.157453 495.878101,327.720258 492.908771,330.689588 L428.208634,395.389725 C410.861496,412.736863 387.888259,422.269975 363.508498,422.269975 L320.531354,422.269975 C296.151592,422.269975 273.022075,412.736863 255.831217,395.389725 L192.225044,331.783551 C188.943153,328.50166 184.411018,326.626294 180.191444,326.626294 C177.378394,326.626294 174.721625,327.407697 172.533698,328.970502 C168.939246,331.627271 166.751319,335.378004 166.438758,339.753858 C166.126197,343.973432 167.689002,348.193006 170.658332,351.162336 L235.358468,415.862473 C252.705607,433.209611 262.238718,456.182848 262.238718,480.56261 L262.238718,523.539754 C262.238718,547.919516 252.705607,571.049033 235.358468,588.239891 L171.752295,651.846064 C166.282477,657.315882 165.032233,666.067591 168.939246,671.53741 C171.596015,675.131862 175.346747,677.319789 179.722602,677.63235 C184.098457,678.101192 188.16175,676.382106 191.13108,673.412776 L255.831217,608.712639 C273.178355,591.365501 296.151592,581.832389 320.531354,581.832389 L363.508498,581.832389 C387.888259,581.832389 411.017777,591.365501 428.208634,608.712639 L491.814808,672.318812 C497.284626,677.788631 506.036335,679.038875 511.506154,675.131862 C515.100606,672.475093 517.288533,668.72436 517.601094,664.348506 C517.913655,660.128931 516.35085,655.909357 513.38152,652.940027 L448.681383,588.239891 Z M392.732956,521.976949 C392.732956,539.011526 378.823989,552.920492 361.789412,552.920492 L321.781598,552.920492 C304.747021,552.920492 290.838054,539.011526 290.838054,521.976949 L290.838054,481.969135 C290.838054,464.934558 304.747021,451.025591 321.781598,451.025591 L361.789412,451.025591 C378.823989,451.025591 392.732956,464.934558 392.732956,481.969135 L392.732956,521.976949 Z" id="Shape"></path>
            <path d="M611.056847,174.565345 L611.056847,144.715765 C635.74917,140.965032 654.659113,119.710881 654.659113,93.9245946 L654.659113,87.2045321 L421.957414,87.2045321 L421.957414,93.9245946 C421.957414,119.554601 441.023637,140.808752 465.55968,144.715765 L465.55968,174.565345 L363.664778,174.565345 L363.664778,90.0175816 C363.664778,40.3203751 323.344403,0 273.647197,0 L133.619848,0 C84.0789217,0 43.6022661,40.3203751 43.6022661,90.0175816 L43.6022661,176.596992 C18.5973823,183.160774 0,205.665169 0,232.7017 L0,741.863645 C0,773.901153 26.0988474,800 58.1363548,800 L610.900567,800 C642.938074,800 669.037619,773.901153 669.037619,741.863645 L669.037619,232.7017 C669.193202,200.664192 643.094354,174.565345 611.056847,174.565345 Z M101.894901,99.394413 L101.894901,174.565345 L72.6704434,174.565345 L72.6704434,90.0175816 C72.6704434,56.417269 100.019535,29.0681774 133.619848,29.0681774 L273.647197,29.0681774 C307.247509,29.0681774 334.596601,56.417269 334.596601,90.0175816 L334.596601,174.565345 L305.528424,174.565345 L305.528424,99.394413 C305.528424,76.7337371 287.087322,58.2926353 264.426646,58.2926353 L142.996679,58.2926353 C120.336003,58.1363548 101.894901,76.5774565 101.894901,99.394413 Z M130.963079,99.394413 C130.963079,92.6743505 136.432897,87.3608127 142.996679,87.3608127 L264.426646,87.3608127 C271.146708,87.3608127 276.460246,92.830631 276.460246,99.394413 L276.460246,174.565345 L130.963079,174.565345 L130.963079,99.394413 Z M546.669271,666.692713 C545.575308,679.507716 539.011526,691.072475 528.540731,698.730221 C511.506154,711.076382 486.813831,708.575894 471.185778,692.947841 L407.579605,629.341668 C395.858566,617.464349 380.074233,611.056847 363.352217,611.056847 L320.375073,611.056847 C303.653057,611.056847 288.025005,617.620629 276.147685,629.341668 L211.447548,694.041805 C203.164681,702.324673 192.068763,706.856808 180.660285,706.856808 C179.410041,706.856808 178.316077,706.856808 177.065833,706.700527 C164.25083,705.606564 152.686071,699.042782 145.028326,688.571987 C132.682164,671.53741 135.182653,646.845087 150.810705,631.217035 L214.416878,567.610861 C226.137918,555.889822 232.7017,540.105489 232.7017,523.383473 L232.7017,480.406329 C232.7017,463.684313 226.137918,448.056261 214.416878,436.178941 L149.716742,371.478804 C140.652471,362.414534 135.964055,349.912092 137.058019,337.097089 C138.151983,324.282086 144.715765,312.717328 155.18656,305.059582 C172.221137,292.713421 196.91346,295.213909 212.541512,310.841961 L276.147685,374.448134 C287.868724,386.169174 303.653057,392.732956 320.375073,392.732956 L363.352217,392.732956 C380.074233,392.732956 395.702286,386.169174 407.579605,374.448134 L472.279742,309.747998 C481.344013,300.683727 494.002735,296.151592 506.661457,297.089275 C519.47646,298.183239 531.1975,304.747021 538.698965,315.217816 C551.045126,332.252393 548.544638,356.944716 532.916585,372.572768 L469.310412,436.178941 C457.589373,447.89998 451.025591,463.684313 451.025591,480.406329 L451.025591,523.383473 C451.025591,540.105489 457.589373,555.733542 469.310412,567.610861 L534.010549,632.310998 C543.074819,641.375269 547.606954,653.87771 546.669271,666.692713 Z M581.98867,174.565345 L494.627857,174.565345 L494.627857,145.497167 L581.98867,145.497167 L581.98867,174.565345 Z" id="Shape"></path>
            <path d="M361.945693,480.093768 L321.937878,480.093768 C321.000195,480.093768 320.062512,480.875171 320.062512,481.969135 L320.062512,521.976949 C320.062512,522.914632 320.843915,523.852315 321.937878,523.852315 L361.945693,523.852315 C362.883376,523.852315 363.821059,523.070912 363.821059,521.976949 L363.821059,481.969135 C363.664778,480.875171 362.883376,480.093768 361.945693,480.093768 Z" id="Path"></path>
        </g>
    </g>
</svg>
