<?xml version="1.0" encoding="UTF-8"?>
<svg width="486px" height="401px" viewBox="0 0 486 401" version="1.1" xmlns="http://www.w3.org/2000/svg" xmlns:xlink="http://www.w3.org/1999/xlink">
    <title>Group</title>
    <g id="Page-1" stroke="none" stroke-width="1" fill="none" fill-rule="evenodd">
        <g id="Vector-(2025)" transform="translate(-40.000000, -83.000000)" fill="#292930">
            <g id="Group" transform="translate(40.939393, 83.691000)">
                <path d="M410.941607,209.696 L250.390607,75.474 C248.150607,73.598 245.404607,72.658 242.635607,72.658 C239.878607,72.658 237.127607,73.598 234.874607,75.474 L75.5836067,208.568 C72.8486067,210.857 71.2376067,214.245 71.2376067,217.84 L71.2376067,399.691 L95.4176067,399.691 L95.4176067,223.491 L242.617607,100.487 L391.103607,224.625 L391.103607,399.691 L415.269607,399.691 L415.269607,218.964 C415.269607,215.383 413.681607,211.988 410.941607,209.696 Z M230.551607,4.332 L6.65060673,191.47 C-1.19739327,198.117 -2.26739327,209.858 4.33660673,217.748 C10.9306067,225.669 22.6806067,226.702 30.6116067,220.085 L242.506607,42.948 L454.449607,220.082 C462.349607,226.722 474.117607,225.669 480.695607,217.748 C487.320607,209.858 486.261607,198.106 478.361607,191.47 L254.501607,4.332 C251.052607,1.407 246.740607,0 242.506607,0 C238.242607,0 234.010607,1.407 230.551607,4.332 L230.551607,4.332 Z" id="Fill-4"></path>
                <path d="M178.030607,266.041 L174.420607,266.041 C170.809607,266.041 167.488607,267.308 164.870607,269.413 C164.822607,269.453 164.758607,269.486 164.715607,269.532 C164.593607,269.629 164.476607,269.748 164.359607,269.852 C161.908607,272.003 160.138607,274.924 159.459607,278.24 C159.260607,279.238 159.146607,280.266 159.146607,281.318 C159.146607,289.749 165.984607,296.594 174.424607,296.594 L179.300607,296.594 L179.300607,266.044 L178.030607,266.044 L178.030607,266.041 Z M223.009607,266.041 L215.798607,266.041 L215.798607,296.591 L217.068607,296.591 L217.068607,296.594 L224.271607,296.594 L224.271607,266.044 L223.009607,266.044 L223.009607,266.041 Z M178.030607,347.5 L174.424607,347.5 C174.400607,347.5 174.383607,347.506 174.352607,347.506 L170.611607,347.506 C170.539607,347.506 170.481607,347.518 170.419607,347.518 C170.517607,347.664 170.611607,347.827 170.707607,347.981 C164.077607,349.644 159.152607,355.629 159.152607,362.776 C159.152607,370.252 164.528607,376.471 171.627607,377.784 C171.570607,377.876 171.535607,377.965 171.484607,378.055 L179.300607,378.055 L179.300607,347.506 L178.030607,347.506 L178.030607,347.5 Z M223.009607,347.5 L215.798607,347.5 L215.798607,378.055 L224.271607,378.055 L224.271607,347.506 L223.009607,347.506 L223.009607,347.5 Z M267.988607,347.5 L260.775607,347.5 L260.775607,378.055 L269.247607,378.055 L269.247607,347.506 L267.988607,347.506 L267.988607,347.5 Z M243.158607,244.405 C242.946607,244.405 242.734607,244.426 242.523607,244.436 C242.316607,244.426 242.107607,244.405 241.891607,244.405 C233.453607,244.405 226.620607,251.242 226.620607,259.678 L226.620607,384.421 C226.620607,392.854 233.453607,399.691 241.891607,399.691 C242.107607,399.691 242.316607,399.666 242.523607,399.662 C242.734607,399.666 242.946607,399.691 243.158607,399.691 C251.589607,399.691 258.425607,392.856 258.425607,384.418 L258.425607,259.678 C258.425607,251.245 251.589607,244.405 243.158607,244.405 Z M246.345607,384.421 C246.345607,386.655 244.675607,388.493 242.523607,388.801 C240.371607,388.493 238.707607,386.655 238.707607,384.418 L238.707607,259.678 C238.707607,257.441 240.371607,255.607 242.523607,255.297 C244.675607,255.607 246.345607,257.442 246.345607,259.678 L246.345607,384.421 Z M288.134607,244.405 C287.917607,244.405 287.705607,244.426 287.500607,244.436 C287.283607,244.426 287.074607,244.405 286.861607,244.405 C278.427607,244.405 271.587607,251.242 271.587607,259.678 L271.587607,384.421 C271.587607,392.854 278.427607,399.691 286.861607,399.691 C287.074607,399.691 287.283607,399.666 287.500607,399.662 C287.705607,399.666 287.917607,399.691 288.134607,399.691 C296.568607,399.691 303.410607,392.858 303.410607,384.418 L303.412607,259.678 C303.412607,251.245 296.568607,244.405 288.134607,244.405 Z M291.314607,384.421 C291.314607,386.655 289.650607,388.485 287.503607,388.797 C285.353607,388.485 283.685607,386.652 283.691591,384.418 L283.691591,259.678 C283.685607,257.442 285.353607,255.608 287.500607,255.297 C289.650607,255.608 291.314607,257.442 291.314607,259.678 L291.314607,384.421 Z M325.667607,360.25 C324.464607,353.025 318.193607,347.5 310.620607,347.5 L305.740607,347.5 L305.740607,378.055 L310.620607,378.055 C316.205607,378.055 321.070607,375.048 323.736607,370.58 C323.839607,370.404 323.953607,370.238 324.054607,370.061 C324.080607,370.003 324.101607,369.938 324.136607,369.885 C325.257607,367.761 325.896607,365.35 325.896607,362.785 C325.896607,361.915 325.808607,361.075 325.667607,360.25 Z M198.183607,244.404 C197.966607,244.404 197.746607,244.426 197.531607,244.436 C197.324607,244.426 197.119607,244.404 196.915607,244.404 C188.483607,244.404 181.639607,251.242 181.639607,259.678 L181.639607,384.421 C181.639607,392.854 188.483607,399.691 196.915607,399.691 C197.133607,399.691 197.341607,399.666 197.550607,399.662 C197.760607,399.666 197.977607,399.691 198.183607,399.691 C206.619607,399.691 213.459607,392.856 213.459607,384.418 L213.459607,259.678 C213.459607,251.245 206.619607,244.404 198.183607,244.404 Z M201.361607,384.421 C201.361607,386.655 199.699607,388.493 197.550607,388.797 C195.402607,388.493 193.736607,386.652 193.736607,384.418 L193.736607,259.678 C193.736607,257.442 195.402607,255.608 197.550607,255.297 C199.699607,255.608 201.361607,257.442 201.361607,259.678 L201.361607,384.421 Z M262.037607,266.041 L260.775607,266.041 L260.775607,296.591 L262.040607,296.591 L262.040607,296.594 L269.247607,296.594 L269.247607,266.041 L262.037607,266.041 L262.037607,266.041 Z" id="Fill-5"></path>
                <path d="M246.687607,193 C246.687607,191.993 247.023607,191.168 247.695607,190.514 C248.370607,189.858 249.154607,189.537 250.070607,189.537 C251.005607,189.537 251.812607,189.861 252.468607,190.525 C253.125607,191.186 253.451607,191.98 253.451607,192.912 C253.451607,193.85 253.120607,194.651 252.453607,195.303 C251.794607,195.965 251.005607,196.294 250.074607,196.294 C249.080607,196.294 248.275607,195.945 247.644607,195.263 C247.007607,194.577 246.687607,193.816 246.687607,193 Z M248.449607,192.872 C248.449607,193.355 248.607607,193.748 248.935607,194.062 C249.251607,194.377 249.634607,194.534 250.070607,194.534 C250.513607,194.534 250.890607,194.376 251.208607,194.059 C251.535607,193.742 251.697607,193.36 251.697607,192.912 C251.697607,192.469 251.535607,192.083 251.208607,191.768 C250.890607,191.453 250.513607,191.289 250.070607,191.289 C249.601607,191.289 249.220607,191.458 248.908607,191.791 C248.603607,192.126 248.449607,192.476 248.449607,192.872 L248.449607,192.872 Z" id="Fill-6"></path>
                <path d="M265.154607,197.238 L260.689607,197.238 L260.689607,194.256 C260.689607,193.39 260.638607,192.847 260.548607,192.631 C260.449607,192.418 260.242607,192.31 259.913607,192.31 C259.548607,192.31 259.310607,192.44 259.218607,192.702 C259.117607,192.963 259.062607,193.526 259.062607,194.395 L259.062607,202.362 C259.062607,203.199 259.117607,203.745 259.218607,204.004 C259.310607,204.249 259.535607,204.381 259.884607,204.381 C260.212607,204.381 260.429607,204.249 260.531607,204.004 C260.638607,203.745 260.689607,203.145 260.689607,202.203 L260.689607,200.049 L265.154607,200.049 L265.154607,200.714 C265.154607,202.485 265.033607,203.749 264.775607,204.491 C264.523607,205.234 263.972607,205.884 263.107607,206.442 C262.247607,207.002 261.193607,207.283 259.935607,207.283 C258.628607,207.283 257.550607,207.045 256.705607,206.576 C255.855607,206.092 255.298607,205.446 255.017607,204.611 C254.740607,203.775 254.607607,202.514 254.607607,200.828 L254.607607,195.818 C254.607607,194.578 254.648607,193.655 254.724607,193.038 C254.818607,192.418 255.070607,191.824 255.490607,191.253 C255.919607,190.68 256.498607,190.229 257.232607,189.899 C257.978607,189.577 258.841607,189.411 259.812607,189.411 C261.128607,189.411 262.205607,189.657 263.058607,190.17 C263.917607,190.676 264.482607,191.309 264.745607,192.071 C265.011607,192.827 265.154607,194.006 265.154607,195.613 L265.154607,197.238" id="Fill-7"></path>
                <path d="M264.187607,164.852 C262.322607,162.99 259.306607,162.99 257.449607,164.852 L252.964607,169.338 L256.007607,172.389 C256.537607,172.918 256.537607,173.78 256.007607,174.309 C255.482607,174.838 254.615607,174.838 254.087607,174.311 L251.037607,171.266 L247.832607,174.472 L250.880607,177.516 C251.408607,178.05 251.406607,178.91 250.880607,179.44 C250.343607,179.968 249.482607,179.968 248.954607,179.442 L245.906607,176.395 L242.702607,179.604 L245.745607,182.655 C246.271607,183.183 246.275607,184.04 245.745607,184.572 C245.214607,185.104 244.353607,185.104 243.822607,184.576 L240.772607,181.53 L233.898607,188.407 C230.085607,187.091 225.697607,187.949 222.651607,190.989 C218.406607,195.236 218.406607,202.13 222.651607,206.383 C226.905607,210.633 233.792607,210.635 238.047607,206.377 C241.092607,203.338 241.940607,198.948 240.628607,195.136 L264.187607,171.579 C266.042607,169.724 266.042607,166.71 264.187607,164.852 Z M242.523607,144.47 C219.799607,144.47 201.377607,162.889 201.377607,185.617 C201.377607,208.345 219.799607,226.765 242.523607,226.765 C265.245607,226.765 283.667607,208.345 283.667607,185.617 C283.667607,162.889 265.245607,144.47 242.523607,144.47 Z M242.523607,217.622 C224.848607,217.622 210.516607,203.289 210.516607,185.617 C210.516607,167.938 224.848607,153.615 242.523607,153.615 C260.193607,153.615 274.529607,167.938 274.529607,185.617 C274.529607,203.289 260.193607,217.622 242.523607,217.622 L242.523607,217.622 Z" id="Fill-8"></path>
                <path d="M325.111607,260.348 C314.304607,260.348 305.544607,269.107 305.544607,279.911 C305.544607,290.717 314.304607,299.475 325.111607,299.475 C335.915607,299.475 344.673607,290.717 344.673607,279.911 C344.673607,269.107 335.915607,260.348 325.111607,260.348 Z M325.111607,287.151 C321.126607,287.151 317.876607,283.899 317.876607,279.911 C317.876607,275.92 321.126607,272.672 325.111607,272.672 C329.103607,272.672 332.351607,275.92 332.351607,279.911 C332.351607,283.899 329.103607,287.151 325.111607,287.151 L325.111607,287.151 Z" id="Fill-9"></path>
            </g>
        </g>
    </g>
</svg>