<?xml version="1.0" encoding="UTF-8"?>
<svg width="800px" height="800px" viewBox="0 0 800 800" version="1.1" xmlns="http://www.w3.org/2000/svg" xmlns:xlink="http://www.w3.org/1999/xlink">
    <title>hight-quality</title>
    <g id="Page-1" stroke="none" stroke-width="1" fill="none" fill-rule="evenodd">
        <g id="hight-quality" transform="translate(-0.000104, 0.363594)" fill="currentColor" fill-rule="nonzero">
            <path d="M330.433788,625.342755 L271.614694,625.342755 L241.666278,565.375812 C235.752575,553.584276 216.447847,553.584276 210.535774,565.375812 L180.553118,625.342755 L121.734024,625.342755 C114.708342,625.342755 108.343,629.58686 105.664142,636.090793 C102.985285,642.594725 104.482054,650.073677 109.420738,655.048231 L155.021637,700.64913 L139.473504,778.459902 C138.046846,785.521454 141.143102,792.755836 147.265505,796.582541 C153.387909,800.443487 161.17828,800.130437 166.953393,795.781982 L226.085537,751.433282 L285.21768,795.781982 C288.313936,798.07768 291.966182,799.259768 295.652668,799.259768 C295.931478,799.294008 296.174417,799.259768 296.348877,799.259768 C305.949066,799.259768 313.741068,791.467767 313.741068,781.867578 C313.741068,778.980021 313.044858,776.232684 311.79266,773.866876 L297.149437,700.647499 L342.750335,655.046601 C347.72489,650.072046 349.220028,642.594725 346.506931,636.089162 C343.790573,629.58523 337.45947,625.342755 330.433788,625.342755 Z" id="Path"></path>
            <path d="M180.866167,482.730706 C183.962424,485.026403 187.61467,486.208492 191.301156,486.208492 C191.544095,486.208492 191.822905,486.242732 191.997365,486.208492 C201.597554,486.208492 209.389555,478.416491 209.389555,468.816301 C209.389555,465.928745 208.693346,463.181408 207.441148,460.8156 L192.797924,387.596223 L238.398823,341.995325 C243.373377,337.02077 244.868515,329.543449 242.155418,323.037886 C239.442321,316.532323 233.111218,312.289848 226.085537,312.289848 L167.266443,312.289848 L137.316396,252.326167 C131.402693,240.53463 112.097965,240.53463 106.185892,252.326167 L76.2032359,312.293109 L17.3841423,312.293109 C10.3584604,312.293109 3.99311763,316.537214 1.31426051,323.041147 C-1.36459662,329.545079 0.132172001,337.024031 5.07085625,341.998586 L50.6717546,387.599484 L35.1236222,465.410256 C33.6969637,472.471808 36.7932204,479.70619 42.9156236,483.532896 C49.0380268,487.393841 56.7941579,487.115031 62.6035114,482.732336 L121.735655,438.383637 L180.866167,482.730706 Z" id="Path"></path>
            <path d="M469.56642,242.725978 C469.80936,242.725978 470.08817,242.760217 470.26263,242.725978 C479.862819,242.725978 487.65482,234.933976 487.65482,225.333787 C487.65482,222.44623 486.958611,219.698894 485.706412,217.333086 L471.063189,144.113709 L516.664087,98.5128104 C521.638642,93.5382558 523.13378,86.0609346 520.420683,79.5553717 C517.707586,73.0498087 511.376483,68.8073338 504.350801,68.8073338 L445.531708,68.8073338 L415.583292,8.84365249 C409.669588,-2.94788416 390.36486,-2.94788416 384.452787,8.84365249 L354.470131,68.8105948 L295.651038,68.8105948 C288.625356,68.8105948 282.260013,73.0547001 279.581156,79.5586326 C276.902299,86.0625651 278.399067,93.5415168 283.337751,98.5160713 L328.93865,144.11697 L313.390517,221.927742 C311.963859,228.989294 315.060116,236.223676 321.182519,240.050381 C327.339162,243.911327 335.061053,243.632517 340.870407,239.249822 L400.00255,194.901122 L459.134693,239.249822 C462.227689,241.543889 465.914174,242.725978 469.56642,242.725978 Z" id="Path"></path>
            <path d="M798.685948,323.041147 C796.007091,316.537214 789.641748,312.293109 782.616066,312.293109 L723.796972,312.293109 L693.848556,252.326167 C687.934853,240.53463 668.630125,240.53463 662.718052,252.326167 L632.735396,312.293109 L573.916302,312.293109 C566.89062,312.293109 560.525278,316.537214 557.84642,323.041147 C555.167563,329.545079 556.664332,337.024031 561.603016,341.998586 L607.203915,387.599484 L591.655782,465.410256 C590.229124,472.471808 593.32538,479.70619 599.447784,483.532896 C605.570187,487.393841 613.360558,487.115031 619.135671,482.732336 L678.267815,438.383637 L737.399958,482.732336 C740.496214,485.028034 744.14846,486.210122 747.834946,486.210122 C748.113756,486.210122 748.356695,486.244362 748.531155,486.210122 C758.131345,486.210122 765.923346,478.418121 765.923346,468.817932 C765.923346,465.930375 765.227137,463.183038 763.974938,460.817231 L749.331715,387.597853 L794.932613,341.996955 C799.869667,336.988161 801.364805,329.545079 798.685948,323.041147 Z" id="Path"></path>
            <path d="M678.266184,625.342755 L619.447091,625.342755 L589.498674,565.375812 C583.584971,553.584276 564.280243,553.584276 558.36817,565.375812 L528.385514,625.342755 L469.56642,625.342755 C462.540738,625.342755 456.175396,629.58686 453.496539,636.090793 C450.817681,642.594725 452.31445,650.073677 457.253134,655.048231 L502.854033,700.64913 L487.3059,778.459902 C485.879242,785.521454 488.975498,792.755836 495.097902,796.582541 C501.220305,800.443487 508.976436,800.130437 514.785789,795.781982 L573.917933,751.433282 L633.050076,795.781982 C636.146333,798.07768 639.798578,799.259768 643.485064,799.259768 C643.763874,799.294008 644.041053,799.259768 644.181274,799.259768 C653.781463,799.259768 661.573464,791.467767 661.573464,781.867578 C661.573464,778.980021 660.877255,776.232684 659.625056,773.866876 L644.981833,700.647499 L690.582731,655.046601 C695.557286,650.072046 697.052424,642.594725 694.339327,636.089162 C691.622969,629.58523 685.293497,625.342755 678.266184,625.342755 Z" id="Path"></path>
        </g>
    </g>
</svg>
