<?xml version="1.0" encoding="UTF-8"?>
<svg viewBox="0 0 652 700" version="1.1" xmlns="http://www.w3.org/2000/svg" xmlns:xlink="http://www.w3.org/1999/xlink">
    <title>idea</title>
    <g id="Page-1" stroke="none" stroke-width="1" fill="none" fill-rule="evenodd">
        <g id="idea" transform="translate(0.604041, 0.000000)" fill="currentColor" fill-rule="nonzero">
            <path d="M630.395959,302.5 C620.395959,287.5 607.895959,280 592.895959,277.5 C585.395959,277.5 580.395959,277.5 572.895959,277.5 L572.895959,192.5 C572.895959,87.5 485.395959,0 375.395959,0 L350.395959,0 C310.395959,0 270.395959,12.5 237.895959,35 C222.895959,27.5 205.395959,25 190.395959,25 C127.895959,25 77.8959591,75 77.8959591,135 L77.8959591,280 C70.3959591,277.5 65.3959591,277.5 57.8959591,280 C42.8959591,282.5 30.3959591,290 20.3959591,305 C2.89595906,330 -4.60404094,370 2.89595906,412.5 C15.3959591,480 55.3959591,527.5 97.8959591,520 C100.395959,520 100.395959,520 102.895959,520 C142.895959,627.5 230.395959,700 325.395959,700 C420.395959,700 507.895959,627.5 547.895959,515 C550.395959,515 550.395959,515 552.895959,515 C595.395959,522.5 635.395959,475 647.895959,407.5 C655.395959,367.5 647.895959,327.5 630.395959,302.5 Z M325.395959,525 C292.895959,525 265.395959,505 255.395959,475 L395.395959,475 C385.395959,505 357.895959,525 325.395959,525 Z M400.395959,375 L400.395959,425 C400.395959,440 390.395959,450 375.395959,450 L275.395959,450 C260.395959,450 250.395959,440 250.395959,425 L250.395959,375 C220.395959,352.5 200.395959,315 200.395959,275 C200.395959,205 255.395959,150 325.395959,150 C395.395959,150 450.395959,205 450.395959,275 C450.395959,315 430.395959,350 400.395959,375 Z" id="Shape"></path>
        </g>
    </g>
</svg>
