<?xml version="1.0" encoding="UTF-8"?>
<svg viewBox="0 0 801 600" version="1.1" xmlns="http://www.w3.org/2000/svg" xmlns:xlink="http://www.w3.org/1999/xlink">
    <title>individual-approach</title>
    <g id="Page-1" stroke="none" stroke-width="1" fill="none" fill-rule="evenodd">
        <g id="individual-approach" fill="currentColor" fill-rule="nonzero">
            <path d="M792.7,157.3 C797.402085,161.990213 800.044689,168.358637 800.044689,175 C800.044689,181.641363 797.402085,188.009787 792.7,192.7 L642.7,342.7 C638.009787,347.402085 631.641363,350.044689 625,350.044689 C618.358637,350.044689 611.990213,347.402085 607.3,342.7 L532.3,267.7 C522.52456,257.92456 522.52456,242.07544 532.3,232.3 C542.07544,222.52456 557.92456,222.52456 567.7,232.3 L625,289.65 L757.3,157.3 C761.990213,152.597915 768.358637,149.955311 775,149.955311 C781.641363,149.955311 788.009787,152.597915 792.7,157.3 L792.7,157.3 Z" id="Path"></path>
            <path d="M50,600 C50,600 0,600 0,550 C0,500 50,350 300,350 C550,350 600,500 600,550 C600,600 550,600 550,600 L50,600 Z M300,300 C382.842712,300 450,232.842712 450,150 C450,67.1572875 382.842712,0 300,0 C217.157288,0 150,67.1572875 150,150 C150,232.842712 217.157288,300 300,300 Z" id="Shape"></path>
        </g>
    </g>
</svg>
