<?xml version="1.0" encoding="UTF-8"?>
<svg width="86px" height="22px" viewBox="0 0 86 22" version="1.1" xmlns="http://www.w3.org/2000/svg" xmlns:xlink="http://www.w3.org/1999/xlink">
    <title>logo</title>
    <g id="Page-1" stroke="none" stroke-width="1" fill="none" fill-rule="evenodd">
        <g id="logo" transform="translate(0.570000, 0.330000)" fill-rule="nonzero">
            <rect id="Rectangle" fill="#FBBE2C" x="-7.10542736e-15" y="14.71" width="84.89" height="6.32"></rect>
            <g id="Group" transform="translate(2.210000, 0.000000)" fill="#3C3C3B" stroke="#FFFFFF" stroke-width="0.25">
                <path d="M0,0.4 L9.56,0.4 C11.72,0.4 13.63,0.76 15.28,1.48 C16.93,2.2 18.22,3.23 19.13,4.57 C20.04,5.91 20.5,7.48 20.5,9.3 C20.5,11.12 20.04,12.69 19.13,14.03 C18.22,15.37 16.93,16.4 15.28,17.12 C13.63,17.84 11.72,18.2 9.56,18.2 L0,18.2 L0,0.4 L0,0.4 Z M9.28,13.52 C10.68,13.52 11.81,13.15 12.65,12.41 C13.49,11.67 13.91,10.63 13.91,9.3 C13.91,7.97 13.49,6.92 12.65,6.19 C11.81,5.45 10.69,5.08 9.28,5.08 L6.54,5.08 L6.54,13.52 L9.28,13.52 Z" id="Shape"></path>
                <polygon id="Path" points="26.54 5.05 20.86 5.05 20.86 0.4 38.75 0.4 38.75 5.05 33.07 5.05 33.07 18.19 26.53 18.19 26.53 5.05"></polygon>
                <path d="M44.38,17.42 C42.74,16.63 41.45,15.53 40.52,14.12 C39.59,12.71 39.12,11.1 39.12,9.3 C39.12,7.5 39.59,5.9 40.52,4.48 C41.45,3.06 42.74,1.96 44.38,1.18 C46.02,0.39 47.87,-1.42108547e-14 49.92,-1.42108547e-14 C51.8,-1.42108547e-14 53.48,0.3 54.96,0.91 C56.44,1.52 57.66,2.4 58.62,3.55 L54.49,6.93 C53.29,5.54 51.88,4.85 50.25,4.85 C48.88,4.85 47.79,5.25 46.95,6.06 C46.11,6.87 45.7,7.94 45.7,9.3 C45.7,10.66 46.12,11.74 46.95,12.54 C47.78,13.34 48.88,13.75 50.25,13.75 C51.87,13.75 53.29,13.06 54.49,11.67 L58.62,15.05 C57.66,16.2 56.44,17.08 54.96,17.69 C53.48,18.3 51.8,18.61 49.92,18.61 C47.87,18.6 46.02,18.2 44.38,17.42 Z" id="Path"></path>
                <polygon id="Path" points="68.11 12.29 66.64 13.79 66.64 18.19 60.22 18.19 60.22 0.4 66.65 0.4 66.65 6.86 73.02 0.4 80.14 0.4 72.38 8.23 80.52 18.19 72.96 18.19"></polygon>
            </g>
        </g>
    </g>
</svg>