<svg version="1.1" id="Слой_1" xmlns="http://www.w3.org/2000/svg" xmlns:xlink="http://www.w3.org/1999/xlink" x="0px" y="0px" viewBox="0 0 692.64 432.48" style="enable-background:new 0 0 692.64 432.48;" xml:space="preserve">
<style type="text/css">
	.st0{enable-background:new    ;}
	.st1{fill:#4A4A49;}
</style>
    <g class="st0">
	<path class="st1" d="M386.24,172.28c5.74,0,7.66,1.76,7.66,7.04v17.91c0,5.28-1.91,7.04-7.66,7.04H361.7v74.53
		c0,5.28-1.91,7.04-7.66,7.04h-25.06c-5.74,0-7.66-1.76-7.66-7.04v-74.53H296.8c-5.74,0-7.66-1.76-7.66-7.04v-17.91
		c0-5.28,1.91-7.04,7.66-7.04H386.24z"></path>
        <path class="st1" d="M398.42,216.26c0-28.79,20.18-46.38,55.5-46.38c27.32,0,44.89,9.76,52.72,29.11c1.91,4.96,0.52,7.2-4.87,8.96
		l-23.66,7.68c-5.57,1.44-7.66,0.64-9.74-4.48c-2.78-6.56-6.26-9.12-14.44-9.12c-11.83,0-15.14,3.84-15.14,14.08v25.91
		c0,10.24,3.31,14.08,15.14,14.08c7.31,0,12.18-3.04,14.62-9.12c2.09-5.12,4.35-6.24,9.74-4.48l23.49,7.68
		c5.39,1.76,6.79,4.16,4.87,9.12c-7.83,19.35-25.4,28.95-52.72,28.95c-35.32,0-55.5-17.59-55.5-46.38V216.26z"></path>
        <path class="st1" d="M623.74,277.04c2.96,4.96,0.87,8.8-5.22,8.8h-23.49c-9.74,0-13.05-1.28-16.36-7.52l-14.09-26.87
		c-2.44-4.48-4.87-6.72-7.13-6.72h-1.57v34.07c0,5.28-1.91,7.04-7.66,7.04h-25.06c-5.74,0-7.66-1.76-7.66-7.04v-99.48
		c0-5.28,1.91-7.04,7.66-7.04h25.06c5.74,0,7.66,1.76,7.66,7.04v33.11l1.91,0.16h1.22l19.49-33.91c1.57-2.72,3.13-4.48,4.7-5.28
		c1.57-0.8,4.52-1.12,9.22-1.12h24.88c5.57,0,7.48,3.04,4.7,7.68l-27.49,47.98c2.09,2.4,4,5.12,5.74,8.16L623.74,277.04z"></path>
</g>
    <g>
	<g>
		<path class="st1" d="M200.6,115.22H70.56c-6.53,0-11.83,5.3-11.83,11.83v32.66H183c20.15,0,36.48,16.33,36.48,36.48v11.12
			c0,20.7-16.78,37.49-37.49,37.49h-7.95l8.46-66.32l-39.05,4.1l-13.22,103.25h20.22h18.36h40.7c38.19,0,69.15-30.96,69.15-69.15
			v-23.42C278.65,150.16,243.71,115.22,200.6,115.22z"></path>
        <path class="st1" d="M117.92,214.34H31.67c-0.72,0-1.31-0.59-1.31-1.31v-9.75c0-0.72,0.59-1.31,1.31-1.31h86.25
			c0.72,0,1.31,0.59,1.31,1.31v9.75C119.22,213.75,118.64,214.34,117.92,214.34z"></path>
        <path class="st1" d="M117.92,234.36H50.24c-0.72,0-1.31-0.59-1.31-1.31v-9.75c0-0.72,0.59-1.31,1.31-1.31h67.68
			c0.72,0,1.31,0.59,1.31,1.31v9.75C119.22,233.77,118.64,234.36,117.92,234.36z"></path>
        <path class="st1" d="M117.92,255.62H31.67c-0.72,0-1.31-0.59-1.31-1.31v-9.75c0-0.72,0.59-1.31,1.31-1.31h86.25
			c0.72,0,1.31,0.59,1.31,1.31v9.75C119.22,255.04,118.64,255.62,117.92,255.62z"></path>
	</g>
</g>
</svg>
