<?xml version="1.0" encoding="utf-8"?>
<!-- Generator: Adobe Illustrator 25.4.1, SVG Export Plug-In . SVG Version: 6.00 Build 0)  -->
<svg version="1.1" id="Слой_1" xmlns="http://www.w3.org/2000/svg" xmlns:xlink="http://www.w3.org/1999/xlink" x="0px" y="0px"
	 viewBox="0 0 255.12 141.73" style="enable-background:new 0 0 255.12 141.73;" xml:space="preserve">
<style type="text/css">
	.st0{fill:#FBBE2C;}
	.st1{fill:#3C3C3B;stroke:#FFFFFF;stroke-width:0.25;stroke-miterlimit:10;}
</style>
<g>
	<rect x="45.57" y="98.04" class="st0" width="84.89" height="6.32"/>
	<g>
		<path class="st1" d="M47.78,83.73h9.56c2.16,0,4.07,0.36,5.72,1.08c1.65,0.72,2.94,1.75,3.85,3.09c0.91,1.34,1.37,2.91,1.37,4.73
			s-0.46,3.39-1.37,4.73c-0.91,1.34-2.2,2.37-3.85,3.09c-1.65,0.72-3.56,1.08-5.72,1.08h-9.56V83.73z M57.06,96.85
			c1.4,0,2.53-0.37,3.37-1.11c0.84-0.74,1.26-1.78,1.26-3.11s-0.42-2.38-1.26-3.11c-0.84-0.74-1.96-1.11-3.37-1.11h-2.74v8.44H57.06
			z"/>
		<path class="st1" d="M74.32,88.38h-5.68v-4.65h17.89v4.65h-5.68v13.14h-6.54V88.38z"/>
		<path class="st1" d="M92.16,100.75c-1.64-0.79-2.93-1.89-3.86-3.3c-0.93-1.41-1.4-3.02-1.4-4.82s0.47-3.4,1.4-4.82
			c0.93-1.42,2.22-2.52,3.86-3.3c1.64-0.79,3.49-1.18,5.54-1.18c1.88,0,3.56,0.3,5.04,0.91c1.48,0.61,2.7,1.49,3.66,2.64l-4.13,3.38
			c-1.2-1.39-2.61-2.08-4.24-2.08c-1.37,0-2.46,0.4-3.3,1.21s-1.25,1.88-1.25,3.24s0.42,2.44,1.25,3.24s1.93,1.21,3.3,1.21
			c1.62,0,3.04-0.69,4.24-2.08l4.13,3.38c-0.96,1.15-2.18,2.03-3.66,2.64c-1.48,0.61-3.16,0.92-5.04,0.92
			C95.65,101.93,93.8,101.53,92.16,100.75z"/>
		<path class="st1" d="M115.89,95.62l-1.47,1.5v4.4H108V83.73h6.43v6.46l6.37-6.46h7.12l-7.76,7.83l8.14,9.96h-7.56L115.89,95.62z"
			/>
	</g>
</g>
</svg>
