<?xml version="1.0" encoding="UTF-8"?>
<svg viewBox="0 0 428 628" version="1.1" xmlns="http://www.w3.org/2000/svg" xmlns:xlink="http://www.w3.org/1999/xlink">
    <title>mobile</title>
    <g id="Page-1" stroke="none" stroke-width="1" fill="none" fill-rule="evenodd" stroke-linecap="round" stroke-linejoin="round">
        <g id="mobile" transform="translate(14.000000, 14.000000)" stroke="currentColor" stroke-width="26.666667">
            <path d="M166.666667,500 L233.333333,500 M106.666667,600 L293.333333,600 C330.67,600 349.34,600 363.6,592.733333 C376.143333,586.343333 386.343333,576.143333 392.733333,563.6 C400,549.34 400,530.67 400,493.333333 L400,106.666667 C400,69.33 400,50.6613333 392.733333,36.4006667 C386.343333,23.8563333 376.143333,13.6576667 363.6,7.26633333 C349.34,0 330.67,0 293.333333,0 L106.666667,0 C69.33,0 50.6613333,0 36.4006667,7.26633333 C23.8563333,13.6576667 13.6576667,23.8563333 7.26633333,36.4006667 C0,50.6613333 0,69.3296667 0,106.666667 L0,493.333333 C0,530.67 0,549.34 7.26633333,563.6 C13.6576667,576.143333 23.8563333,586.343333 36.4006667,592.733333 C50.6613333,600 69.3296667,600 106.666667,600 Z" id="Shape"></path>
        </g>
    </g>
</svg>
