<?xml version="1.0" encoding="UTF-8"?>
<svg width="800px" height="800px" viewBox="0 0 800 800" version="1.1" xmlns="http://www.w3.org/2000/svg" xmlns:xlink="http://www.w3.org/1999/xlink">
    <title>refueling</title>
    <g id="Page-1" stroke="none" stroke-width="1" fill="none" fill-rule="evenodd">
        <g id="refueling" fill="currentColor" fill-rule="nonzero">
            <path d="M439.6216,400 L240.25228,400 L240.25228,360 C240.25228,337.92 222.31344,320 200.21024,320 C178.107,320 160.16816,337.92 160.16816,360 L160.16816,400 L119.28524,400 C97.18204,400 80.08408,382.08 80.08408,360 L80.08408,120 C80.08408,97.92 97.18204,80 119.28524,80 L439.6216,80 C461.7248,80 480.50452,97.92 480.50452,120 L480.50452,360 C480.50452,382.08 461.7248,400 439.6216,400 L439.6216,400 Z M400.42044,680 C400.42044,702.08 381.64072,720 359.53752,720 L199.36932,720 C177.26612,720 160.16816,702.08 160.16816,680 L160.16816,480 L160.5686,480 L240.65268,480 L400.42044,480 L400.42044,680 Z M759.95796,240 L719.91592,240 C675.66944,240 639.83184,280 639.83184,320 L640.27228,320 C640.27228,440 600.63068,560 480.50452,560 L480.50452,480 C520.54656,480 560.5886,444.2 560.5886,400 L560.5886,80 C560.5886,35.8 523.91012,0 479.66364,0 L79.2432,0 C34.99676,0 0,35.8 0,80 L0,400 C0,444.2 40.04204,480 80.08408,480 L80.08408,720 C80.08408,764.2 115.08084,800 159.32728,800 L399.57956,800 C443.826,800 480.50452,764.2 480.50452,720 L480.50452,640 C640.67272,640 716.03184,517.2 719.91592,358.76 C720.43644,337.2 737.81472,320 759.4374,320 L759.95796,320 C782.06116,320 800,302.08 800,280 C800,257.92 782.06116,240 759.95796,240 L759.95796,240 Z" id="oil_round-[#735]"></path>
        </g>
    </g>
</svg>
