<?xml version="1.0" encoding="UTF-8"?>
<svg viewBox="0 0 764 764" version="1.1" xmlns="http://www.w3.org/2000/svg" xmlns:xlink="http://www.w3.org/1999/xlink">
    <title>team</title>
    <g id="Page-1" stroke="none" stroke-width="1" fill="none" fill-rule="evenodd">
        <g id="team" transform="translate(31.999416, 32.000000)" stroke="currentColor" stroke-width="63.6666667">
            <circle id="Oval" cx="350.000584" cy="63.6666667" r="63.6666667"></circle>
            <path d="M254.66725,222.666667 L254.66725,222.666667 C254.66725,170.015521 297.349437,127.333333 350.000584,127.333333 L350.000584,127.333333 C402.65173,127.333333 445.333917,170.015521 445.333917,222.666667 L445.333917,222.666667" id="Path"></path>
            <circle id="Oval" cx="604.66725" cy="445.333333" r="63.6666667"></circle>
            <path d="M508.999998,604.666667 L508.999998,604.666667 C508.911618,579.26712 518.962184,554.882204 536.922486,536.921902 C554.882787,518.9616 579.267704,508.911034 604.66725,508.999414 L604.66725,508.999414 C630.009082,508.999414 654.308141,519.089608 672.196222,537.040235 C690.084303,554.990862 700.089191,579.32499 700.001167,604.666667 L700.001167,604.666667" id="Path"></path>
            <circle id="Oval" cx="95.3339169" cy="445.333333" r="63.6666667"></circle>
            <path d="M2.84217094e-14,604.666667 L2.84217094e-14,604.666667 C-0.0880242208,579.32499 9.91686409,554.990862 27.8049451,537.040235 C45.6930261,519.089608 69.9920851,508.999414 95.3339169,508.999414 L95.3339169,508.999414 C120.733464,508.911034 145.11838,518.9616 163.078682,536.921902 C181.038983,554.882204 191.08955,579.26712 191.001169,604.666667 L191.001169,604.666667" id="Path"></path>
            <path d="M32.3339169,329 C39.4555345,220.930809 101.145103,123.936212 196.000584,71.6666667" id="Path"></path>
            <path d="M504.000584,71.6666667 C598.856064,123.936212 660.545633,220.930809 667.66725,329" id="Path"></path>
            <path d="M229.66725,676.333333 C306.78458,707.897959 393.216588,707.897959 470.333917,676.333333" id="Path"></path>
        </g>
    </g>
</svg>
