<?xml version="1.0" encoding="UTF-8"?>
<svg width="48px" height="48px" viewBox="0 0 800 800" version="1.1" xmlns="http://www.w3.org/2000/svg" xmlns:xlink="http://www.w3.org/1999/xlink">
    <title>time</title>
    <g id="Page-1" stroke="none" stroke-width="1" fill="none" fill-rule="evenodd">
        <g id="time" transform="translate(-0.000004, 0.000000)" fill="currentColor" fill-rule="nonzero">
            <path d="M258.334379,339.385937 L345.659379,406.746875 C349.020316,433.903125 371.912504,455.021875 400.000004,455.021875 C430.395316,455.021875 455.021879,430.38125 455.021879,400 C455.021879,398.821875 454.750004,397.73125 454.675004,396.565625 L582.650004,245.165625 C591.590629,235.145312 591.740629,220.710937 583.034379,212.971875 C574.317191,205.209375 560.018754,207.070312 551.103129,217.089062 L425.345316,351.439062 C417.731254,347.445312 409.187504,344.978125 399.998441,344.978125 C390.151566,344.978125 381.051566,347.76875 373.064066,352.295312 L290.835941,295.040625 C280.232816,287.228125 264.334379,290.848437 255.343754,303.101562 C246.379691,315.326562 247.693754,331.584375 258.334379,339.385937 Z" id="Path"></path>
            <path d="M400,0 C382.465629,0 368.254691,14.2125 368.254691,31.746875 C368.254691,49.28125 382.467191,63.4921875 400,63.4921875 C493.031254,63.5046875 576.946879,101.104688 637.946879,162.053125 C698.896879,223.040625 736.496879,306.96875 736.507816,400 C736.496879,493.03125 698.896879,576.946875 637.946879,637.946875 C576.946879,698.896875 493.031254,736.495312 400,736.507812 C306.970316,736.495313 223.040629,698.895313 162.054691,637.946875 C101.104691,576.946875 63.5046911,493.03125 63.4921911,400 C63.5046911,332.403125 83.4453161,269.63125 117.709379,216.953125 L147.173441,238.975 C150.360941,241.35625 154.576566,241.951562 158.309379,240.5375 C162.029691,239.125 164.807816,235.9375 165.626566,232.01875 L185.454691,138.232812 C188.989066,132.167187 190.501566,125.198437 189.645316,118.353125 L198.610941,75.9671875 C199.565629,71.5046875 197.817191,66.9140625 194.182816,64.1734375 C190.523441,61.4578125 185.626566,61.0859375 181.607816,63.26875 L41.3171911,139.1125 C37.7953161,141.034375 35.5015661,144.58125 35.2171911,148.560937 C34.9187536,152.529687 36.6796911,156.398438 39.8796911,158.792187 L66.7140661,178.84375 C24.6031286,242.2125 -0.0109338564,318.290625 0,400 C0.0250036436,620.93125 179.068754,799.975 400,800 C620.932816,799.975 799.976566,620.93125 800,400 C799.976566,179.06875 620.932816,0.025 400,0 Z" id="Path"></path>
        </g>
    </g>
</svg>
