<?xml version="1.0" encoding="UTF-8"?>
<svg width="48px" height="48px" viewBox="0 0 697 801" version="1.1" xmlns="http://www.w3.org/2000/svg" xmlns:xlink="http://www.w3.org/1999/xlink">
    <title>truck</title>
    <g id="Page-1" stroke="none" stroke-width="1" fill="none" fill-rule="evenodd">
        <g id="truck" transform="translate(0.033333, 0.000000)" fill="currentColor" fill-rule="nonzero">
            <path d="M348.266667,0 C226.933333,0 124.6,6.7 109.333333,15.6 C82.6666667,24.7 62.6,85.2666667 62.5333333,157.133333 L62.5333333,192.833333 L55.2666667,192.833333 C54.4666667,191.1 53.5,189.633333 52.3333333,188.333333 C55.3666667,184.833333 57.2,180.266667 57.2,175.266667 C57.2,175.166667 57.2,175.066667 57.2,175 L57.2,157.133333 C57.2666667,156.633333 57.2666667,156.1 57.2666667,155.533333 C57.2666667,147.2 51.0333333,140.3 42.9666667,139.3 L42.9,139.3 L14.3666667,139.3 C6.23333333,140.333333 5.55111512e-15,147.2 5.55111512e-15,155.566667 C5.55111512e-15,156.133333 0.0333333333,156.7 0.1,157.266667 L0.1,157.2 L0.1,175.066667 L0.1,175.333333 C0.1,180.333333 1.93333333,184.933333 4.96666667,188.433333 L4.93333333,188.4 C1.9,191.9 0.0666666667,196.466667 0.0666666667,201.466667 L0.0666666667,201.733333 L0.0666666667,291 C5.55111512e-15,291.5 5.55111512e-15,292.033333 5.55111512e-15,292.6 C5.55111512e-15,300.933333 6.23333333,307.833333 14.3,308.833333 L14.3666667,308.833333 L42.9333333,308.833333 C48.5666667,308.533333 53.2666667,304.966667 55.2333333,300 L55.2666667,299.9 L62.5333333,299.9 L62.5333333,460.633333 C62.5333333,467 69.3666667,472.9 80.4,476.066667 L80.4,496.933333 C64.6333333,498.966667 53.7333333,506.066667 53.7333333,514.2 L53.7333333,692.866667 C53.6666667,694.3 53.6,696 53.6,697.7 C53.6,719.033333 60.3333333,738.766667 71.8,754.966667 L71.6,754.666667 L71.6,785.366667 C71.6,793.466667 78.1666667,800.033333 86.2666667,800.033333 L146.2,800.033333 C154.3,800.033333 160.866667,793.466667 160.866667,785.366667 L160.866667,764.333333 L535.766667,764.333333 L535.766667,785.366667 C535.766667,793.466667 542.333333,800.033333 550.433333,800.033333 L610.366667,800.033333 C618.466667,800.033333 625.033333,793.466667 625.033333,785.366667 L625.033333,754.7 C636.266667,738.833333 643.033333,719.066667 643.033333,697.766667 C643.033333,696.066667 643,694.4 642.9,692.7 L642.9,692.933333 L642.9,514.266667 C642.9,506.133333 631.866667,499.033333 616.233333,497 L616.233333,476.133333 C627.266667,472.966667 634.066667,467.066667 634.1,460.7 L634.1,300.033333 L641.366667,300.033333 C643.366667,305.1 648.1,308.666667 653.666667,308.966667 L653.7,308.966667 L682.166667,308.966667 C690.3,307.933333 696.533333,301.066667 696.533333,292.7 C696.533333,292.133333 696.5,291.566667 696.433333,291 L696.433333,291.066667 L696.433333,201.8 C696.433333,201.733333 696.433333,201.633333 696.433333,201.533333 C696.433333,196.533333 694.6,191.933333 691.566667,188.433333 L691.6,188.466667 C694.633333,184.966667 696.466667,180.4 696.466667,175.4 C696.466667,175.3 696.466667,175.2 696.466667,175.133333 L696.466667,157.333333 C696.533333,156.833333 696.533333,156.3 696.533333,155.733333 C696.533333,147.4 690.3,140.5 682.233333,139.5 L682.166667,139.5 L653.6,139.5 C645.466667,140.533333 639.233333,147.4 639.233333,155.766667 C639.233333,156.333333 639.266667,156.9 639.333333,157.466667 L639.333333,157.4 L639.333333,175.266667 L639.333333,175.533333 C639.333333,180.533333 641.166667,185.133333 644.2,188.633333 L644.166667,188.6 C643,189.9 642.033333,191.366667 641.266667,192.966667 L641.233333,193.066667 L633.966667,193.066667 L633.966667,157.2 C633.966667,84.9666667 613.7,24.1333333 586.833333,15.5 C570.5,6.63333333 468.666667,0.0666666667 348.266667,0.0666666667 L348.266667,0 Z M103.333333,103.566667 L593.166667,103.566667 C601.8,103.566667 609,109.7 610.666667,117.866667 L610.7,117.966667 C614.1,134.966667 616.033333,154.533333 616.033333,174.566667 L616.033333,175.833333 L616.033333,175.766667 L616.033333,300 C616.033333,309.866667 608.033333,317.866667 598.166667,317.866667 L98.2666667,317.866667 C88.4,317.866667 80.4,309.866667 80.4,300 L80.4,175.8 C80.4,175.433333 80.4,175.033333 80.4,174.6 C80.4,154.566667 82.3333333,135 86.0333333,116.066667 L85.7333333,117.966667 C87.4,109.7 94.6,103.566667 103.266667,103.566667 L103.333333,103.566667 Z M125.033333,496.433333 L163.3,496.433333 C168.066667,496.433333 171.933333,500.166667 172.2,504.866667 L172.2,504.9 L178.566667,620.966667 L178.566667,621.433333 C178.566667,626.366667 174.566667,630.366667 169.633333,630.366667 L125.033333,630.366667 C120.1,630.366667 116.1,626.366667 116.1,621.433333 L116.1,505.366667 C116.1,500.433333 120.1,496.433333 125.033333,496.433333 Z M533.2,496.433333 L571.466667,496.433333 C576.4,496.433333 580.4,500.433333 580.4,505.366667 L580.4,621.333333 C580.4,626.266667 576.4,630.266667 571.466667,630.266667 L526.833333,630.266667 C521.9,630.266667 517.9,626.266667 517.9,621.333333 C517.9,621.166667 517.9,621 517.9,620.833333 L517.9,620.866667 L524.266667,504.8 C524.6,500.133333 528.466667,496.466667 533.166667,496.466667 L533.2,496.466667 L533.2,496.433333 Z M200.933333,517.766667 L495.6,517.766667 C498.066667,517.766667 500.066667,519.766667 500.066667,522.233333 L500.066667,527.566667 C500.066667,530.033333 498.066667,532.033333 495.6,532.033333 L200.933333,532.033333 C198.466667,532.033333 196.466667,530.033333 196.466667,527.566667 L196.466667,522.233333 C196.466667,519.766667 198.466667,517.766667 200.933333,517.766667 Z M202.7,549.9 L493.8,549.9 C496.266667,549.9 498.266667,551.9 498.266667,554.366667 L498.266667,559.7 C498.266667,562.166667 496.266667,564.166667 493.8,564.166667 L202.7,564.166667 C200.233333,564.166667 198.233333,562.166667 198.233333,559.7 L198.233333,554.366667 C198.233333,551.9 200.233333,549.9 202.7,549.9 Z M204.5,582.033333 L492.033333,582.033333 C494.5,582.033333 496.5,584.033333 496.5,586.5 L496.5,591.833333 C496.5,594.3 494.5,596.3 492.033333,596.3 L204.5,596.3 C202.1,596.3 200.166667,594.4 200.066667,592.033333 L200.066667,586.7 C200.066667,584.233333 202.066667,582.233333 204.533333,582.233333 L204.5,582.033333 Z M206.3,614.166667 L490.233333,614.166667 C492.7,614.166667 494.7,616.166667 494.7,618.633333 L494.7,623.966667 C494.7,626.433333 492.7,628.433333 490.233333,628.433333 L206.3,628.433333 C203.833333,628.433333 201.833333,626.433333 201.833333,623.966667 L201.833333,618.633333 C201.833333,616.166667 203.833333,614.166667 206.3,614.166667 Z" id="Shape"></path>
        </g>
    </g>
</svg>
